# xmcd CD database file
#
# Track frame offsets:
#	150
#	24710
#	48243
#	76588
#	99145
#	126078
#	147003
#	166418
#	194388
#	214048
#
# Disc length: 3183 seconds
#
# Revision: 2
# Processed by: cddbd v1.5.2PL0 Copyright (c) Steve Scherf et al.
# Submitted via: CDex 1.70beta3
#
DISCID=780c6d0a
DTITLE=Manhattan Winds - The Stranger
DYEAR=1994
DGENRE=Jazz
TTITLE0=New York State Of Mind
TTITLE1=My Life
TTITLE2=Just The Way You Are
TTITLE3=Say Goodbye To The Hollywood
TTITLE4=honesty
TTITLE5=You May Be Right
TTITLE6=And So It Goes
TTITLE7=The Stranger
TTITLE8=The River Of Dreams
TTITLE9=Piano Man
EXTD=YEAR: 1994
EXTT0=
EXTT1=
EXTT2=
EXTT3=
EXTT4=
EXTT5=
EXTT6=
EXTT7=
EXTT8=
EXTT9=
PLAYORDER=
